<svg xmlns="http://www.w3.org/2000/svg" viewBox="0 0 193.87 185.43"><defs><style>.cls-1{fill:#fff;}</style></defs><g id="Layer_2" data-name="Layer 2"><g id="Layer_1-2" data-name="Layer 1"><polygon class="cls-1" points="171.5 67.9 165.43 69.52 165.43 28.81 170.82 27.37 170.82 53.2 171.27 53.07 177 25.71 183.41 24 183.41 64.71 178.02 66.15 178.02 38.97 177.56 39.09 171.5 67.9"/><path class="cls-1" d="M173.84,25.37c1-2.39,4.79-3.6,8.86-4.76v-4.5c-4.69,1.25-8.27,2.54-9.11,6l-.45.12c-.68-3.19-4.28-2.08-7-1.35v4.51c1.92-.52,5.76-1.65,6.83.21Z"/><path class="cls-1" d="M118.23,82.51l-2.52.67V77.69l1.76-.47c.94-2,1.51-8.54,1.51-31.09V41.26l14.68-3.93V78l-5.73,1.53V44l-3.56,1v1.6c0,31.77-1.61,34.71-6.14,35.93"/><path class="cls-1" d="M143.75,34.62,138,36.16V76.87L144.85,75c7.22-1.94,8.43-8,8.43-14.13v-2c0-4.49-.91-8.21-3.86-8.51l5.81-12,.45-.12V72.14l5.39-1.45V30l-6.74,1.81L144.85,51.6v2.61c3.06-.42,3,4,3,6.4v1.47a27.6,27.6,0,0,1-.33,4.77,3.94,3.94,0,0,1-3.13,3.37l-.66.18Z"/><path class="cls-1" d="M88.75,63.56l-1.09.29v-9L96,52.58V47.42l-14,3.77V91.9l6.83-1.83C96,88.14,97.52,82,97.52,75.85v-3C97.52,66.67,96,61.63,88.75,63.56Zm3,13.55a26.8,26.8,0,0,1-.33,4.78,3.94,3.94,0,0,1-3.13,3.36l-.66.18V68.51l.66-.17c1.72-.46,2.73,0,3.13,1.69a23.92,23.92,0,0,1,.33,4.59Z"/><path class="cls-1" d="M115.31,63.81v-6a55.51,55.51,0,0,0-.62-9.07c-1.12-5.86-4.93-5.52-7.14-4.93s-6,2.3-7.15,8.75A62.29,62.29,0,0,0,99.78,62V71.5a55.6,55.6,0,0,0,.62,9.07c1.12,5.86,4.93,5.52,7.15,4.92a9.1,9.1,0,0,0,6.56-6.73c.88-3.2.91-8.14.93-11.06l-5.13,1.37c0,2,0,4.12-.08,5.55s-.33,5.19-2.28,5.71c-.82.22-1.5-.28-1.74-2.66-.21-2.1-.29-5.9-.29-8.78V66.44Zm-9.79-2.26c0-2.87.08-6.72.29-8.94.24-2.5.92-3.37,1.74-3.58s1.49.28,1.73,2.65c.21,2.11.29,5.91.29,8.78v.23l-4,1.09Z"/><polygon class="cls-1" points="87.99 137.04 94.06 108.23 94.51 108.11 94.51 135.29 99.9 133.85 99.9 93.14 93.49 94.86 87.77 122.22 87.31 122.34 87.31 96.51 81.92 97.96 81.92 138.67 87.99 137.04"/><polygon class="cls-1" points="137.41 123.8 137.41 105.12 142.23 103.83 142.23 122.51 147.96 120.97 147.96 80.26 142.23 81.8 142.23 98.44 137.41 99.73 137.41 83.09 131.68 84.63 131.68 125.34 137.41 123.8"/><path class="cls-1" d="M127.11,92.22c-1.11-5.85-4.92-5.51-7.14-4.92s-6,2.3-7.14,8.75a62.2,62.2,0,0,0-.62,9.41v1.29l-2.22.6V90.43L104.26,92v40.71l5.73-1.53V112l2.22-.6v3.53a55.6,55.6,0,0,0,.62,9.07c1.12,5.86,4.93,5.51,7.14,4.92s6-2.29,7.14-8.75a60.71,60.71,0,0,0,.63-9.4V101.3A54.38,54.38,0,0,0,127.11,92.22Zm-5.11,19c0,2.87-.08,6.72-.29,8.93-.24,2.51-.92,3.37-1.74,3.59s-1.49-.28-1.73-2.66c-.21-2.1-.29-5.9-.29-8.78V105c0-2.88.08-6.72.29-8.94.24-2.51.92-3.37,1.73-3.59s1.5.29,1.74,2.66c.21,2.11.29,5.91.29,8.78Z"/><path class="cls-1" d="M159.14,91.2l-1.09.29V77.56l-5.73,1.54v40.71l6.82-1.83c7.23-1.94,8.78-8.09,8.78-14.23v-3C167.92,94.58,166.37,89.26,159.14,91.2Zm3,13.82a27.67,27.67,0,0,1-.33,4.77,3.94,3.94,0,0,1-3.13,3.37l-.67.18V96.42l.67-.18c1.72-.46,2.73,0,3.13,1.69a24.85,24.85,0,0,1,.33,4.6Z"/><path class="cls-1" d="M35.11,44.92V0L29.26,1.57V46.48Zm0,0V151.2l35.11-9.4V54.32ZM0,54.32l5.85-1.56V159L0,160.61Zm11.7-3.13,5.85-1.57V155.9l-5.85,1.57Zm11.71-3.14,5.85-1.57V152.77l-5.85,1.57Z"/><path class="cls-1" d="M151.62,136.36l.4-.11c.94-.25,1.3.41,1.3,2.43v.14c0,2-.36,2.94-1.16,3.15l-.54.14Zm.64,7.61c2.33-.63,3.41-2.49,3.41-5.85s-1.08-4.58-3.6-3.9l-.45.12v-6.89l-2.35.63v16.69Zm-11.76,3.29c1.86-.5,2.47-1.7,2.47-14.72v-.65l1.6-.43V146l2.35-.63V128.71l-6.16,1.65v2c0,11.7-.33,12.89-.94,13.06a1.15,1.15,0,0,1-.38,0v2a7.24,7.24,0,0,0,1.06-.14M135,135l.1,0,.68,7.78-1.48.4Zm-1.2,13.93.33-3.78,1.84-.49.32,3.6,2.38-.64-2.12-16.11-2.91.78-2.12,17.25Zm-7.52-5.6.37-.1c1.11-.3,1.46.27,1.46,2.27v.18c0,2.07-.35,2.92-1.29,3.17l-.54.15Zm0-7.12.42-.11c.89-.24,1.22.38,1.22,2.23v.17c0,1.69-.33,2.53-1.08,2.73l-.56.15Zm.75,14.53c2.25-.6,3.33-2.42,3.36-5.53,0-2.33-.57-3.32-1.67-3.57v0c.94-.82,1.48-2.23,1.48-4.3,0-2.82-1-3.82-3.38-3.18l-2.82.75v16.69Zm-9.85,2.64,2.2-10.34h.05v9.75l2.21-.59V135.49l-2.21.59-2.21,10.35h0v-9.75l-2.21.59V154Zm-5.51,1.48V140.37l1.88-.5v-2.21l-6.11,1.64v2.21l1.88-.51v14.48ZM104.23,157a8.92,8.92,0,0,0,2-.87v-2.33a4.61,4.61,0,0,1-1.64.91c-1.51.4-2-.93-2-5.58v-.3c0-4.8.47-6.41,2-6.82a3.06,3.06,0,0,1,1.53,0v-2.3a5.67,5.67,0,0,0-1.81.18c-2.91.78-4.11,3.61-4.11,9.89,0,6,1.1,8,4,7.2m-5.63,1.32v-2.11l-2.86.76v-5.38l2.47-.66v-2.09l-2.47.66v-5l2.77-.74v-2.12l-5.12,1.38v16.68ZM87.65,147.81c1.15-.31,1.55.83,1.55,4.4v.22c0,3.57-.4,4.92-1.55,5.23Zm-2.31,10.47c-1.15.31-1.55-.83-1.55-4.4v-.22c0-3.57.4-4.92,1.55-5.23Zm2.31,3.47v-2.16c2.72-.73,3.8-3,3.8-7.86s-1.08-6.57-3.8-5.84v-1.77l-2.31.62v1.76c-2.72.73-3.8,2.95-3.8,7.86s1.08,6.57,3.8,5.84v2.17Z"/><path class="cls-1" d="M119.49,175.37l-2.2.59V159.28l2.2-.59v9.75l.05,0,2.21-10.34,2.21-.59v16.68l-2.21.59V165h0Zm1.13-17.76c1.62-.44,2.42-1.33,2.45-2.75l-1.7.45c0,.65-.23,1-.77,1.1s-.71-.06-.73-.69l-1.69.45c0,1.4.82,1.87,2.44,1.44m-9,18c-1.06.28-1.2-1.7-1.2-6v-.24c0-4.32.14-6.36,1.2-6.64s1.2,1.68,1.2,6V169c0,4.3-.14,6.35-1.2,6.64m0,2.11c2.63-.7,3.55-3.16,3.55-9.5s-.92-8.31-3.55-7.6-3.55,3.16-3.55,9.5.92,8.31,3.55,7.6m-9.5-5.3.38-.1c1.1-.3,1.45.27,1.45,2.26v.19c0,2.07-.35,2.92-1.29,3.17l-.54.14Zm0-7.12.42-.11c.9-.24,1.23.37,1.23,2.23v.17c0,1.69-.33,2.53-1.09,2.73l-.56.15Zm.75,14.53c2.26-.6,3.34-2.42,3.36-5.53,0-2.33-.56-3.32-1.66-3.57v-.05c.93-.81,1.48-2.23,1.48-4.29,0-2.82-1-3.82-3.39-3.19l-2.82.76v16.68Zm-8.65.44c-1.06.29-1.2-1.7-1.2-6V174c0-4.33.14-6.36,1.2-6.65s1.2,1.68,1.2,6v.24c0,4.3-.14,6.36-1.2,6.64m0,2.12c2.63-.71,3.55-3.16,3.55-9.51s-.92-8.31-3.55-7.6-3.55,3.16-3.55,9.5.92,8.31,3.55,7.61m-10,2.43v-7.5l2-.53v7.5l2.35-.63V167l-2.35.63v7l-2,.53v-7l-2.35.63v16.69Z"/><path class="cls-1" d="M186.64,149.6l.4-.11c.94-.25,1.29.41,1.29,2.43v.14c0,2-.35,2.94-1.15,3.15l-.54.15Zm7.23,5.84V138.76l-2.35.62v16.69Zm-6.6,1.77c2.33-.62,3.41-2.49,3.41-5.85s-1.08-4.57-3.6-3.9l-.44.12v-6.89l-2.35.63V158Zm-8.82-12.28.47-.12c.89-.24,1.22.47,1.22,2.63v.19c0,2-.33,2.91-1.1,3.11l-.59.16Zm0,14.64V152.9l.82-.22c2.21-.59,3.18-2.38,3.18-5.81s-1-4.77-3.41-4.14l-2.89.77v16.69Zm-8.91,2.51c1.43-.39,2.09-1.46,2.56-4.1l2.49-14.06-2.28.61-1,9.37-.05,0-1.17-8.78-2.38.63,2.52,11.78c-.36,2-.57,2.48-1.27,2.67a1.26,1.26,0,0,1-.54.05v2a5.31,5.31,0,0,0,1.15-.17m-4.64,1.12V148.73l1.88-.5V146l-6.11,1.63v2.21l1.88-.5v14.47Zm-9.27-5.29.4-.11c.94-.25,1.3.41,1.3,2.43v.14c0,2-.36,2.94-1.16,3.15l-.54.14Zm.64,7.61c2.33-.63,3.41-2.49,3.41-5.85s-1.08-4.58-3.6-3.9l-.45.12V149l-2.35.63v16.69Zm-11.76,3.29c1.86-.5,2.47-1.7,2.47-14.72v-.65l1.6-.43v14.57l2.35-.63V150.26l-6.16,1.65v2c0,11.7-.33,12.9-.94,13.06a1.11,1.11,0,0,1-.37,0V169a7.27,7.27,0,0,0,1-.14m-6.28,1.66c1.43-.39,2.09-1.46,2.56-4.1l2.49-14.06-2.28.61-1,9.37-.05,0-1.17-8.78-2.37.63,2.51,11.78c-.35,2-.57,2.48-1.27,2.67a1.44,1.44,0,0,1-.54,0v2a5.2,5.2,0,0,0,1.15-.16m-6.82,1.71v-7.9l.09,0,1.72,7.43,2.39-.64-2.06-8,2-8.64-2.35.63-1.67,8-.09,0v-7.52l-2.33.63V172.8Z"/></g></g></svg>